<mxfile host="app.diagrams.net" modified="2022-06-09T06:28:52.598Z" agent="5.0 (Macintosh; Intel Mac OS X 10_15_7) AppleWebKit/605.1.15 (KHTML, like Gecko) Version/15.5 Safari/605.1.15" etag="VLMh9YGJtPGAbZZPVLpu" version="19.0.2" type="github">
  <diagram id="JgO6SrZqUH7fNazniIg1" name="Page-1">
    <mxGraphModel dx="770" dy="535" grid="1" gridSize="10" guides="1" tooltips="1" connect="1" arrows="1" fold="1" page="1" pageScale="1" pageWidth="827" pageHeight="1169" math="0" shadow="0">
      <root>
        <mxCell id="0" />
        <mxCell id="1" parent="0" />
        <mxCell id="Dmx80UyDX9vnrRl6Mk8--1" value="Core" style="ellipse;whiteSpace=wrap;html=1;aspect=fixed;sketch=1;rounded=0;" vertex="1" parent="1">
          <mxGeometry x="230" y="250" width="80" height="80" as="geometry" />
        </mxCell>
        <mxCell id="Dmx80UyDX9vnrRl6Mk8--3" value="Plugin" style="ellipse;whiteSpace=wrap;html=1;aspect=fixed;sketch=1;rounded=0;" vertex="1" parent="1">
          <mxGeometry x="140" y="200" width="50" height="50" as="geometry" />
        </mxCell>
        <mxCell id="Dmx80UyDX9vnrRl6Mk8--4" value="Plugin" style="ellipse;whiteSpace=wrap;html=1;aspect=fixed;sketch=1;rounded=0;" vertex="1" parent="1">
          <mxGeometry x="290" y="170" width="50" height="50" as="geometry" />
        </mxCell>
        <mxCell id="Dmx80UyDX9vnrRl6Mk8--5" value="Plugin" style="ellipse;whiteSpace=wrap;html=1;aspect=fixed;sketch=1;rounded=0;" vertex="1" parent="1">
          <mxGeometry x="130" y="350" width="50" height="50" as="geometry" />
        </mxCell>
        <mxCell id="Dmx80UyDX9vnrRl6Mk8--6" value="Plugin" style="ellipse;whiteSpace=wrap;html=1;aspect=fixed;sketch=1;rounded=0;" vertex="1" parent="1">
          <mxGeometry x="270" y="400" width="50" height="50" as="geometry" />
        </mxCell>
        <mxCell id="Dmx80UyDX9vnrRl6Mk8--7" value="Plugin" style="ellipse;whiteSpace=wrap;html=1;aspect=fixed;sketch=1;rounded=0;" vertex="1" parent="1">
          <mxGeometry x="380" y="280" width="50" height="50" as="geometry" />
        </mxCell>
        <mxCell id="Dmx80UyDX9vnrRl6Mk8--8" value="" style="endArrow=classic;html=1;rounded=0;exitX=0;exitY=1;exitDx=0;exitDy=0;entryX=1;entryY=0;entryDx=0;entryDy=0;sketch=1;curved=1;" edge="1" parent="1" source="Dmx80UyDX9vnrRl6Mk8--4" target="Dmx80UyDX9vnrRl6Mk8--1">
          <mxGeometry width="50" height="50" relative="1" as="geometry">
            <mxPoint x="460" y="290" as="sourcePoint" />
            <mxPoint x="310" y="250" as="targetPoint" />
          </mxGeometry>
        </mxCell>
        <mxCell id="Dmx80UyDX9vnrRl6Mk8--9" value="" style="endArrow=classic;html=1;rounded=0;exitX=1;exitY=1;exitDx=0;exitDy=0;entryX=0;entryY=0;entryDx=0;entryDy=0;sketch=1;curved=1;" edge="1" parent="1" source="Dmx80UyDX9vnrRl6Mk8--3" target="Dmx80UyDX9vnrRl6Mk8--1">
          <mxGeometry width="50" height="50" relative="1" as="geometry">
            <mxPoint x="230" y="140" as="sourcePoint" />
            <mxPoint x="280" y="90" as="targetPoint" />
          </mxGeometry>
        </mxCell>
        <mxCell id="Dmx80UyDX9vnrRl6Mk8--10" value="" style="endArrow=classic;html=1;rounded=0;exitX=0;exitY=0.5;exitDx=0;exitDy=0;entryX=1;entryY=0.5;entryDx=0;entryDy=0;sketch=1;curved=1;" edge="1" parent="1" source="Dmx80UyDX9vnrRl6Mk8--7" target="Dmx80UyDX9vnrRl6Mk8--1">
          <mxGeometry width="50" height="50" relative="1" as="geometry">
            <mxPoint x="370" y="420" as="sourcePoint" />
            <mxPoint x="420" y="370" as="targetPoint" />
          </mxGeometry>
        </mxCell>
        <mxCell id="Dmx80UyDX9vnrRl6Mk8--11" value="" style="endArrow=classic;html=1;rounded=0;exitX=1;exitY=0;exitDx=0;exitDy=0;entryX=0;entryY=1;entryDx=0;entryDy=0;sketch=1;curved=1;" edge="1" parent="1" source="Dmx80UyDX9vnrRl6Mk8--5" target="Dmx80UyDX9vnrRl6Mk8--1">
          <mxGeometry width="50" height="50" relative="1" as="geometry">
            <mxPoint x="230" y="430" as="sourcePoint" />
            <mxPoint x="280" y="380" as="targetPoint" />
          </mxGeometry>
        </mxCell>
        <mxCell id="Dmx80UyDX9vnrRl6Mk8--12" value="" style="endArrow=classic;html=1;rounded=0;exitX=0.5;exitY=0;exitDx=0;exitDy=0;entryX=0.5;entryY=1;entryDx=0;entryDy=0;sketch=1;curved=1;" edge="1" parent="1" source="Dmx80UyDX9vnrRl6Mk8--6" target="Dmx80UyDX9vnrRl6Mk8--1">
          <mxGeometry width="50" height="50" relative="1" as="geometry">
            <mxPoint x="410" y="470" as="sourcePoint" />
            <mxPoint x="460" y="420" as="targetPoint" />
          </mxGeometry>
        </mxCell>
        <mxCell id="Dmx80UyDX9vnrRl6Mk8--13" value="MiddleWare A" style="rounded=0;whiteSpace=wrap;html=1;sketch=1;" vertex="1" parent="1">
          <mxGeometry x="527" y="197" width="120" height="40" as="geometry" />
        </mxCell>
        <mxCell id="Dmx80UyDX9vnrRl6Mk8--14" value="MiddleWare B" style="rounded=0;whiteSpace=wrap;html=1;sketch=1;" vertex="1" parent="1">
          <mxGeometry x="527" y="257" width="120" height="40" as="geometry" />
        </mxCell>
        <mxCell id="Dmx80UyDX9vnrRl6Mk8--15" value="MiddleWare C" style="rounded=0;whiteSpace=wrap;html=1;sketch=1;" vertex="1" parent="1">
          <mxGeometry x="527" y="317" width="120" height="40" as="geometry" />
        </mxCell>
        <mxCell id="Dmx80UyDX9vnrRl6Mk8--16" value="MiddleWare D" style="rounded=0;whiteSpace=wrap;html=1;sketch=1;" vertex="1" parent="1">
          <mxGeometry x="527" y="377" width="120" height="40" as="geometry" />
        </mxCell>
        <mxCell id="Dmx80UyDX9vnrRl6Mk8--17" value="" style="shape=flexArrow;endArrow=classic;html=1;sketch=1;curved=1;" edge="1" parent="1">
          <mxGeometry width="50" height="50" relative="1" as="geometry">
            <mxPoint x="687" y="157" as="sourcePoint" />
            <mxPoint x="687" y="457" as="targetPoint" />
          </mxGeometry>
        </mxCell>
      </root>
    </mxGraphModel>
  </diagram>
</mxfile>
